<?xml version="1.0" encoding="utf-8"?>
<!-- Generator: Adobe Illustrator 22.1.0, SVG Export Plug-In . SVG Version: 6.00 Build 0)  -->
<svg version="1.1" id="Layer_1" xmlns="http://www.w3.org/2000/svg" xmlns:xlink="http://www.w3.org/1999/xlink" x="0px" y="0px"
	 viewBox="0 0 402 99.4" style="enable-background:new 0 0 402 99.4;" xml:space="preserve">
<style type="text/css">
	.st0{fill:#FFFFFF;}
</style>
<g>
	<path class="st0" d="M77.4,22.8v61.7c0,3.7-1.5,5.5-4.6,5.5h-6.7v9.3h9.7c7.9,0,11.8-4.3,11.8-12.9V22.8H77.4z"/>
	<polygon class="st0" points="42.1,5.9 42.1,5.9 35.5,0 15.7,17.5 15.7,17.5 0,31.4 0,98 0,99.4 9.4,99.4 9.4,98 9.4,98 9.4,39.7 
		9.4,34.8 35.4,11.7 61.4,34.7 74.6,34.7 	"/>
	<polygon class="st0" points="59.5,39.9 50.6,39.9 50.6,39.9 49.8,39.9 49.6,40.3 41,58.2 32.5,40.3 32.3,39.9 31.6,39.9 31.6,39.9 
		22.6,39.9 22.6,47.8 22.6,47.8 22.6,98.7 22.6,98.7 22.6,99.3 23.3,99.3 23.3,99.3 23.4,99.3 23.4,99.3 32.5,99.3 32.5,98.7 
		32.5,98.7 32.5,61.2 41,77.7 49.5,61.2 49.5,91.4 49.5,91.4 49.5,99.3 50.4,99.3 50.4,99.3 59.5,99.3 59.5,98.7 59.5,98.7 
		59.5,40.6 59.5,40.6 	"/>
</g>
<path class="st0" d="M125.5,34.3l3.5-18l5.8,13l6-13l3.2,18h-2.6l-1.6-10.1l-5,10.9l-4.8-10.9l-1.8,10.1H125.5z"/>
<path class="st0" d="M150,17.5v16.8h-2.5V17.5H150z"/>
<path class="st0" d="M166.5,18.4v3c-1.5-1.2-3-1.8-4.5-1.8c-1.7,0-3.2,0.6-4.4,1.9c-1.2,1.2-1.8,2.7-1.8,4.5c0,1.8,0.6,3.2,1.8,4.5
	c1.2,1.2,2.6,1.8,4.4,1.8c0.9,0,1.6-0.1,2.3-0.4c0.3-0.1,0.7-0.3,1.1-0.6c0.4-0.2,0.8-0.5,1.2-0.9v3.1c-1.4,0.8-3,1.2-4.6,1.2
	c-2.4,0-4.4-0.8-6.1-2.5c-1.7-1.7-2.5-3.7-2.5-6.1c0-2.1,0.7-4,2.1-5.7c1.7-2.1,4-3.1,6.8-3.1C163.6,17.2,165.1,17.6,166.5,18.4z"/>
<path class="st0" d="M172.7,24.1h7.2v-6.6h2.5v16.8h-2.5v-7.8h-7.2v7.8h-2.5V17.5h2.5V24.1z"/>
<path class="st0" d="M196.3,30.2h-7.2l-1.9,4.1h-2.7l8.3-17.8l8,17.8h-2.8L196.3,30.2z M195.3,27.8l-2.5-5.7l-2.6,5.7H195.3z"/>
<path class="st0" d="M212.2,19.9h-6.7v4h6.5v2.4h-6.5v5.6h6.7v2.4H203V17.5h9.3V19.9z"/>
<path class="st0" d="M218.1,17.5v14.4h4.9v2.4h-7.5V17.5H218.1z"/>
<path class="st0" d="M237.4,17.5v10.9c0,1.3-0.1,2.3-0.3,2.9c-0.2,0.7-0.5,1.3-0.9,1.8c-0.8,1-2,1.5-3.4,1.5c-1.1,0-2-0.3-3-0.8
	l1.2-2.2c0.6,0.4,1.2,0.6,1.7,0.6c0.8,0,1.3-0.3,1.6-0.9c0.3-0.6,0.5-1.6,0.5-3V17.5H237.4z"/>
<path class="st0" d="M250.7,30.2h-7.2l-1.9,4.1h-2.7l8.3-17.8l8,17.8h-2.8L250.7,30.2z M249.7,27.8l-2.5-5.7l-2.6,5.7H249.7z"/>
<path class="st0" d="M257.3,34.3V16.4l12.2,12.8V17.5h2.5v17.8l-12.2-12.8v11.7H257.3z"/>
<path class="st0" d="M275.4,25.8c0-2.4,0.9-4.4,2.6-6.1c1.7-1.7,3.8-2.5,6.2-2.5c2.4,0,4.4,0.9,6.2,2.6c1.7,1.7,2.6,3.8,2.6,6.2
	c0,2.4-0.9,4.5-2.6,6.1c-1.7,1.7-3.8,2.5-6.3,2.5c-2.2,0-4.1-0.7-5.8-2.2C276.4,30.7,275.4,28.5,275.4,25.8z M278,25.8
	c0,1.9,0.6,3.4,1.9,4.6c1.2,1.2,2.7,1.8,4.3,1.8c1.8,0,3.2-0.6,4.5-1.8c1.2-1.2,1.8-2.7,1.8-4.5c0-1.8-0.6-3.3-1.8-4.5
	c-1.2-1.2-2.7-1.8-4.4-1.8c-1.7,0-3.2,0.6-4.4,1.8C278.6,22.6,278,24.1,278,25.8z"/>
<path class="st0" d="M299.1,31.9h8.1v2.4h-12.2l8.2-14.4h-6.9v-2.4h11.1L299.1,31.9z"/>
<path class="st0" d="M319.3,19.9h-6.7v4h6.5v2.4h-6.5v5.6h6.7v2.4h-9.3V17.5h9.3V19.9z"/>
<path class="st0" d="M325.2,24.2l6.5-6.7h3.4l-7.6,7.6l7.6,9.2h-3.4l-6-7.5l-0.5,0.5v6.9h-2.5V17.5h2.5V24.2z"/>
<path class="st0" d="M346.3,20l-2.1,1.2c-0.4-0.7-0.7-1.1-1.1-1.3c-0.4-0.2-0.8-0.3-1.4-0.3c-0.7,0-1.3,0.2-1.7,0.6
	c-0.5,0.4-0.7,0.9-0.7,1.5c0,0.8,0.6,1.5,1.8,2l1.7,0.7c1.4,0.6,2.4,1.2,3,2s0.9,1.8,0.9,2.9c0,1.5-0.5,2.8-1.5,3.8
	c-1,1-2.3,1.5-3.9,1.5c-1.5,0-2.7-0.4-3.6-1.3c-0.9-0.9-1.5-2.1-1.7-3.6l2.6-0.6c0.1,1,0.3,1.7,0.6,2c0.5,0.7,1.3,1.1,2.3,1.1
	c0.8,0,1.4-0.3,2-0.8c0.5-0.5,0.8-1.2,0.8-2c0-0.3,0-0.6-0.1-0.9c-0.1-0.3-0.2-0.5-0.4-0.7c-0.2-0.2-0.4-0.4-0.7-0.6
	c-0.3-0.2-0.7-0.4-1.1-0.6l-1.6-0.7c-2.3-1-3.4-2.4-3.4-4.3c0-1.3,0.5-2.3,1.4-3.2c1-0.9,2.2-1.3,3.6-1.3
	C343.7,17.2,345.2,18.1,346.3,20z"/>
<path class="st0" d="M352.3,17.5v16.8h-2.5V17.5H352.3z"/>
<path class="st0" d="M139.3,76.6l12.8,17.7h-7.6l-11.8-17h-1.1v17h-6.3V52.8h7.3c5.5,0,9.4,1,11.9,3.1c2.7,2.3,4,5.3,4,9.1
	c0,2.9-0.8,5.5-2.5,7.6C144.3,74.7,142.1,76,139.3,76.6z M131.5,71.8h2c5.9,0,8.9-2.3,8.9-6.8c0-4.2-2.9-6.4-8.6-6.4h-2.2V71.8z"/>
<path class="st0" d="M181.2,58.7h-16.6v10h16.1v5.9h-16.1v13.8h16.6v5.9h-22.9V52.8h22.9V58.7z"/>
<path class="st0" d="M213.8,84.2H196l-4.6,10.1h-6.7l20.5-44l19.8,44h-6.8L213.8,84.2z M211.2,78.3l-6.1-14.1l-6.4,14.1H211.2z"/>
<path class="st0" d="M236.4,52.8v35.6h12.2v5.9h-18.4V52.8H236.4z"/>
<path class="st0" d="M263.3,58.7v35.6H257V58.7h-9.5v-5.9h25.3v5.9H263.3z"/>
<path class="st0" d="M275,73.3c0-5.8,2.1-10.8,6.4-15c4.3-4.2,9.4-6.3,15.4-6.3c5.9,0,11,2.1,15.2,6.3c4.2,4.2,6.4,9.3,6.4,15.2
	c0,6-2.1,11-6.4,15.2c-4.3,4.2-9.4,6.3-15.5,6.3c-5.3,0-10.2-1.9-14.4-5.6C277.3,85.4,275,80,275,73.3z M281.3,73.4
	c0,4.6,1.5,8.3,4.6,11.3c3.1,3,6.6,4.4,10.6,4.4c4.3,0,8-1.5,11-4.5c3-3,4.5-6.7,4.5-11.1c0-4.4-1.5-8.1-4.4-11.1
	c-2.9-3-6.6-4.5-10.9-4.5c-4.3,0-8,1.5-10.9,4.5C282.7,65.4,281.3,69.1,281.3,73.4z"/>
<path class="st0" d="M340.2,76.6L353,94.3h-7.6l-11.8-17h-1.1v17h-6.3V52.8h7.3c5.5,0,9.4,1,11.9,3.1c2.7,2.3,4,5.3,4,9.1
	c0,2.9-0.8,5.5-2.5,7.6C345.1,74.7,342.9,76,340.2,76.6z M332.4,71.8h2c5.9,0,8.9-2.3,8.9-6.8c0-4.2-2.9-6.4-8.6-6.4h-2.2V71.8z"/>
</svg>
